<?xml version="1.0" standalone="no"?>
<!DOCTYPE svg PUBLIC "-//W3C//DTD SVG 20010904//EN"
 "http://www.w3.org/TR/2001/REC-SVG-20010904/DTD/svg10.dtd">
<svg version="1.0" xmlns="http://www.w3.org/2000/svg"
 width="512.000000pt" height="512.000000pt" viewBox="0 0 512.000000 512.000000"
 preserveAspectRatio="xMidYMid meet">
<metadata>
Created by potrace 1.14, written by Peter Selinger 2001-2017
</metadata>
<g transform="translate(0.000000,512.000000) scale(0.100000,-0.100000)"
fill="#000000" stroke="none">
<path d="M1626 5095 c-26 -28 -28 -60 -6 -135 7 -25 14 -50 16 -56 1 -6 9 -36
17 -65 8 -30 18 -66 21 -81 14 -63 90 -89 134 -48 12 12 22 32 22 46 0 14 -19
95 -42 180 -38 140 -45 157 -69 170 -40 20 -67 17 -93 -11z"/>
<path d="M2543 5108 c-25 -12 -40 -56 -90 -250 l-28 -107 21 -28 c37 -50 123
-38 137 19 3 13 17 66 32 118 36 133 36 131 42 172 4 30 1 41 -20 62 -28 27
-57 32 -94 14z"/>
<path d="M863 4660 c-30 -12 -46 -46 -39 -84 9 -48 233 -266 273 -266 53 1 92
55 74 104 -11 28 -220 236 -249 247 -27 11 -30 10 -59 -1z"/>
<path d="M3214 4549 c-68 -68 -124 -131 -127 -145 -9 -51 30 -93 87 -94 21 0
240 209 261 250 11 21 11 31 0 56 -15 37 -24 44 -67 49 -30 4 -42 -5 -154
-116z"/>
<path d="M2029 4536 c-2 -2 -29 -7 -59 -11 -315 -37 -642 -242 -821 -515 -67
-102 -145 -275 -165 -368 -49 -233 -41 -451 26 -652 50 -151 108 -256 217
-392 l54 -68 -15 -57 c-8 -32 -17 -77 -21 -101 -4 -24 -13 -46 -20 -48 -18 -7
-55 14 -55 31 0 20 -40 45 -72 45 -17 0 -42 -13 -65 -33 -28 -24 -58 -38 -111
-50 -217 -51 -392 -203 -473 -411 -33 -86 -39 -118 -44 -223 -11 -259 135
-503 370 -619 161 -79 48 -75 1795 -72 l1555 3 95 33 c224 78 388 225 486 438
51 110 67 190 67 329 -1 229 -79 415 -237 570 -242 238 -597 298 -903 153 -37
-18 -71 -34 -74 -35 -3 -2 -13 23 -23 54 -43 138 -128 289 -228 405 l-49 57
15 53 c32 110 48 332 33 438 -34 228 -103 402 -227 570 -218 294 -548 464
-921 476 -69 2 -128 2 -130 0z"/>
<path d="M423 3882 c-50 -8 -72 -92 -33 -127 11 -10 91 -37 177 -61 167 -45
187 -45 217 -2 45 64 -5 117 -139 144 -5 1 -39 10 -75 19 -98 26 -123 31 -147
27z"/>
<path d="M3797 3884 c-2 -3 -13 -6 -23 -8 -11 -2 -46 -11 -79 -21 -33 -9 -82
-22 -110 -29 -104 -28 -124 -44 -120 -99 3 -37 32 -66 70 -68 17 -1 80 12 140
29 61 17 128 35 150 41 93 24 91 137 -3 156 -11 2 -22 1 -25 -1z"/>
<path d="M563 3017 c-85 -24 -160 -50 -172 -61 -45 -41 -12 -126 49 -126 27 0
139 27 277 66 73 21 96 63 69 126 -6 12 -64 43 -70 37 -1 0 -69 -20 -153 -42z"/>
<path d="M3513 3050 c-53 -21 -65 -99 -21 -130 27 -19 282 -89 326 -90 51 0
79 35 72 95 -4 38 -11 42 -125 74 -225 62 -224 61 -252 51z"/>
<path d="M1677 633 c-95 -157 -155 -281 -169 -343 -22 -109 40 -224 146 -270
161 -69 342 51 340 225 0 49 -8 76 -43 150 -46 98 -147 273 -184 319 l-24 29
-66 -110z"/>
<path d="M3242 698 c-28 -42 -79 -129 -137 -233 -46 -84 -77 -176 -76 -228 3
-159 165 -272 323 -225 61 18 133 89 154 150 30 91 8 178 -89 353 -42 74 -137
225 -143 225 -2 0 -16 -19 -32 -42z"/>
</g>
</svg>
